<svg width="64" height="64" viewBox="0 0 64 64" fill="none" xmlns="http://www.w3.org/2000/svg">
<rect width="64" height="64" rx="24" fill="url(#paint0_radial_1372_27270)"/>
<path d="M51.535 43.6404C47.5632 43.6404 43.8969 39.6624 42.0026 37.2145C40.1083 39.6624 36.442 43.6404 32.4702 43.6404C28.4984 43.6404 24.8321 39.6624 22.9378 37.2145C21.1658 39.6624 17.4995 43.6404 13.5276 43.6404C12.6722 43.6404 12 42.9672 12 42.1104C12 41.2536 12.6722 40.5804 13.5276 40.5804C16.7051 40.5804 20.6158 35.5009 21.7157 33.7261C22.0212 33.2977 22.5101 32.9917 22.9989 32.9917C23.4878 32.9917 24.0377 33.2365 24.2821 33.7261C25.382 35.5009 29.2927 40.5804 32.4702 40.5804C35.6477 40.5804 39.5584 35.5009 40.6583 33.7261C40.9638 33.2977 41.4527 32.9917 41.9415 32.9917C42.4914 32.9917 42.9803 33.2365 43.2247 33.7261C44.3246 35.5009 48.2353 40.5804 51.4128 40.5804C52.2683 40.5804 52.9404 41.2536 52.9404 42.1104C52.9404 42.9672 52.3905 43.6404 51.535 43.6404Z" fill="white"/>
<path d="M51.535 52.3307C47.5632 52.3307 43.8969 48.3527 42.0026 45.9048C40.1083 48.3527 36.442 52.3307 32.4702 52.3307C28.4984 52.3307 24.8321 48.3527 22.9378 45.9048C21.1658 48.3527 17.4995 52.3307 13.5276 52.3307C12.6722 52.3307 12 51.6575 12 50.8007C12 49.9439 12.6722 49.2707 13.5276 49.2707C16.7051 49.2707 20.6158 44.1912 21.7157 42.4164C22.0212 41.988 22.5101 41.682 22.9989 41.682C23.4878 41.682 24.0377 41.9268 24.2821 42.4164C25.382 44.1912 29.2927 49.2707 32.4702 49.2707C35.6477 49.2707 39.5584 44.1912 40.6583 42.4164C40.9638 41.988 41.4527 41.682 41.9415 41.682C42.4914 41.682 42.9803 41.9268 43.2247 42.4164C44.3246 44.1912 48.2353 49.2707 51.4128 49.2707C52.2683 49.2707 52.9404 49.9439 52.9404 50.8007C52.9404 51.6575 52.3905 52.3307 51.535 52.3307Z" fill="white"/>
<path d="M14.5663 36.6637C13.833 36.6637 13.222 36.1741 13.0387 35.4397C12.8554 34.2157 12.7332 32.9917 12.7332 31.8289C12.7332 20.8742 21.5934 12.0003 32.5312 12.0003C43.469 11.9391 52.3293 20.8742 52.3293 31.8289C52.3293 33.0529 52.207 34.2157 52.0237 35.3785C51.9015 36.2353 51.1071 36.7861 50.2517 36.6025C49.3962 36.4801 48.8463 35.6845 49.0296 34.8277C49.2129 33.8485 49.274 32.8081 49.274 31.8289C49.274 22.5878 41.7581 15.0603 32.5312 15.0603C23.3043 15.0603 15.7884 22.5266 15.7884 31.8289C15.7884 32.8693 15.9106 33.9097 16.0939 34.8889C16.2161 35.7457 15.7273 36.5413 14.8718 36.6637C14.7496 36.6637 14.6274 36.6637 14.5663 36.6637Z" fill="white"/>
<defs>
<radialGradient id="paint0_radial_1372_27270" cx="0" cy="0" r="1" gradientUnits="userSpaceOnUse" gradientTransform="translate(-9.65777e-07 7.40741) rotate(44.2296) scale(73.6278 73.7446)">
<stop stop-color="#0058DD"/>
<stop offset="1" stop-color="#67C8FF"/>
</radialGradient>
</defs>
</svg>
