<svg width="32" height="32" viewBox="0 0 32 32" fill="none" xmlns="http://www.w3.org/2000/svg">
<rect width="32" height="32" rx="16" fill="url(#paint0_linear_1708_28297)"/>
<g filter="url(#filter0_d_1708_28297)">
<path d="M22.8303 20.0081C21.4297 20.0081 20.1368 18.6053 19.4688 17.742C18.8008 18.6053 17.5079 20.0081 16.1073 20.0081C14.7067 20.0081 13.4138 18.6053 12.7458 17.742C12.1209 18.6053 10.828 20.0081 9.42737 20.0081C9.1257 20.0081 8.88867 19.7707 8.88867 19.4686C8.88867 19.1664 9.1257 18.929 9.42737 18.929C10.5479 18.929 11.927 17.1378 12.3148 16.5119C12.4226 16.3608 12.5949 16.2529 12.7673 16.2529C12.9397 16.2529 13.1336 16.3393 13.2198 16.5119C13.6077 17.1378 14.9868 18.929 16.1073 18.929C17.2278 18.929 18.6069 17.1378 18.9947 16.5119C19.1025 16.3608 19.2749 16.2529 19.4472 16.2529C19.6412 16.2529 19.8136 16.3393 19.8998 16.5119C20.2876 17.1378 21.6667 18.929 22.7872 18.929C23.0889 18.929 23.3259 19.1664 23.3259 19.4686C23.3259 19.7707 23.132 20.0081 22.8303 20.0081Z" fill="white"/>
<path d="M22.8303 23.3191C21.4297 23.3191 20.1368 21.9163 19.4688 21.0531C18.8008 21.9163 17.5079 23.3191 16.1073 23.3191C14.7067 23.3191 13.4138 21.9163 12.7458 21.0531C12.1209 21.9163 10.828 23.3191 9.42737 23.3191C9.1257 23.3191 8.88867 23.0817 8.88867 22.7796C8.88867 22.4774 9.1257 22.2401 9.42737 22.2401C10.5479 22.2401 11.927 20.4488 12.3148 19.8229C12.4226 19.6719 12.5949 19.564 12.7673 19.564C12.9397 19.564 13.1336 19.6503 13.2198 19.8229C13.6077 20.4488 14.9868 22.2401 16.1073 22.2401C17.2278 22.2401 18.6069 20.4488 18.9947 19.8229C19.1025 19.6719 19.2749 19.564 19.4472 19.564C19.6412 19.564 19.8136 19.6503 19.8998 19.8229C20.2876 20.4488 21.6667 22.2401 22.7872 22.2401C23.0889 22.2401 23.3259 22.4774 23.3259 22.7796C23.3259 23.0817 23.132 23.3191 22.8303 23.3191Z" fill="white"/>
<path d="M9.7939 16.6974C9.53533 16.6974 9.31985 16.5247 9.2552 16.2658C9.19056 15.8341 9.14746 15.4025 9.14746 14.9925C9.14746 11.1294 12.2719 8.00011 16.129 8.00011C19.9862 7.97853 23.1106 11.1294 23.1106 14.9925C23.1106 15.4241 23.0675 15.8341 23.0029 16.2442C22.9598 16.5463 22.6797 16.7406 22.378 16.6758C22.0763 16.6327 21.8824 16.3521 21.947 16.05C22.0117 15.7047 22.0332 15.3378 22.0332 14.9925C22.0332 11.7337 19.3828 9.07918 16.129 9.07918C12.8753 9.07918 10.2249 11.7121 10.2249 14.9925C10.2249 15.3594 10.268 15.7262 10.3326 16.0715C10.3757 16.3737 10.2033 16.6542 9.90164 16.6974C9.85855 16.6974 9.81545 16.6974 9.7939 16.6974Z" fill="white"/>
</g>
<defs>
<filter id="filter0_d_1708_28297" x="4.88867" y="6" width="22.437" height="23.3193" filterUnits="userSpaceOnUse" color-interpolation-filters="sRGB">
<feFlood flood-opacity="0" result="BackgroundImageFix"/>
<feColorMatrix in="SourceAlpha" type="matrix" values="0 0 0 0 0 0 0 0 0 0 0 0 0 0 0 0 0 0 127 0" result="hardAlpha"/>
<feOffset dy="2"/>
<feGaussianBlur stdDeviation="2"/>
<feComposite in2="hardAlpha" operator="out"/>
<feColorMatrix type="matrix" values="0 0 0 0 0.175694 0 0 0 0 0.574142 0 0 0 0 0.916667 0 0 0 1 0"/>
<feBlend mode="normal" in2="BackgroundImageFix" result="effect1_dropShadow_1708_28297"/>
<feBlend mode="normal" in="SourceGraphic" in2="effect1_dropShadow_1708_28297" result="shape"/>
</filter>
<linearGradient id="paint0_linear_1708_28297" x1="2.08616e-07" y1="4" x2="28.8889" y2="32" gradientUnits="userSpaceOnUse">
<stop stop-color="#3EA2F8"/>
<stop offset="1" stop-color="#67C8FF"/>
</linearGradient>
</defs>
</svg>
